# xmcd
#
# Track frame offsets:
#	150
#	14991
#	34423
#	51361
#	72270
#	89620
#	106373
#	131015
#	145226
#	159865
#
# Disc length: 2360 seconds
#
# Revision: 1
# Processed by: cddbd v1.5.2PL0 Copyright (c) Steve Scherf et al.
# Submitted via: audiograbber 1.83.01
#
DISCID=9309360a
DTITLE=Lacy J. Dalton - Higway Diner
DYEAR=1986
DGENRE=Country
TTITLE0=Working Class Man
TTITLE1=12:05
TTITLE2=Changing All the Time
TTITLE3=Takin' It All in Stride
TTITLE4=Can't See Me Without You
TTITLE5=This Ol' Town
TTITLE6=Up With the Wind
TTITLE7=Boomtown 
TTITLE8=Gone Again 
TTITLE9=Closing Time
EXTD=
EXTT0=
EXTT1=
EXTT2=
EXTT3=
EXTT4=
EXTT5=
EXTT6=
EXTT7=
EXTT8=
EXTT9=
PLAYORDER=
